<?xml version="1.0" standalone="no"?>
<!DOCTYPE svg PUBLIC "-//W3C//DTD SVG 20010904//EN"
 "http://www.w3.org/TR/2001/REC-SVG-20010904/DTD/svg10.dtd">
<svg version="1.0" xmlns="http://www.w3.org/2000/svg"
 width="640.000000pt" height="154.000000pt" viewBox="0 0 640.000000 154.000000"
 preserveAspectRatio="xMidYMid meet">

<g transform="translate(0.000000,154.000000) scale(0.100000,-0.100000)"
fill="#000000" stroke="none">
<path d="M619 1526 c-152 -32 -271 -98 -389 -216 -121 -121 -181 -232 -214
-392 -84 -411 188 -816 607 -902 392 -81 784 166 893 565 25 89 25 289 0 378
-73 267 -278 477 -536 551 -96 28 -268 35 -361 16z m304 -62 c40 -8 113 -36
164 -60 312 -153 466 -517 359 -849 -95 -295 -367 -495 -676 -495 -111 0 -208
23 -320 77 -79 38 -107 59 -180 132 -92 93 -140 170 -182 296 -20 60 -23 90
-23 205 0 152 15 214 83 345 50 95 182 227 277 277 67 35 171 72 225 81 62 10
207 6 273 -9z"/>
<path d="M721 905 c-40 -13 -109 -44 -153 -70 l-79 -46 -65 26 c-78 31 -172
44 -251 34 -32 -4 -66 -8 -75 -8 -14 -1 -18 -10 -18 -45 l0 -43 52 13 c29 8
73 14 98 14 48 0 159 -25 173 -39 10 -10 -144 -116 -231 -160 l-62 -31 16 -38
c9 -20 18 -42 21 -49 3 -8 30 -10 93 -6 75 5 100 2 159 -17 39 -12 71 -26 71
-30 0 -19 -107 -44 -182 -44 -43 0 -78 -1 -78 -3 0 -2 12 -20 28 -39 24 -30
33 -34 72 -34 60 1 123 16 193 47 l57 26 85 -57 c47 -31 85 -59 85 -64 0 -9
-58 -47 -135 -88 -57 -31 -59 -33 -35 -42 74 -27 91 -24 175 32 l79 54 51 -21
c37 -15 73 -21 140 -21 90 -1 90 -1 150 40 33 23 87 70 119 104 l60 62 -38 23
-38 23 57 26 c32 14 61 26 65 26 10 0 48 90 57 130 5 25 0 37 -23 61 l-29 31
28 -13 c33 -15 47 -3 47 41 0 23 -10 29 -112 69 -62 24 -156 64 -208 87 -116
53 -162 64 -265 63 -57 0 -102 -7 -154 -24z m166 -52 c-4 -3 -38 -16 -75 -28
-37 -13 -104 -39 -149 -58 -45 -20 -85 -32 -88 -27 -9 14 175 99 235 109 73
12 85 12 77 4z m278 -93 c46 -22 234 -193 224 -204 -3 -3 -44 14 -91 38 -105
52 -194 76 -287 76 -72 0 -180 -27 -216 -54 -27 -21 -24 -21 -84 23 -47 36
-51 40 -34 50 40 21 179 73 232 86 78 20 198 13 256 -15z m-531 -157 c28 -20
53 -38 55 -40 8 -5 -21 -32 -74 -69 l-54 -37 -63 28 c-35 16 -83 34 -108 40
l-45 12 105 50 c58 28 111 52 119 52 7 1 36 -16 65 -36z m496 -24 c59 -18 160
-62 160 -70 0 -5 -32 -18 -71 -30 -103 -31 -193 -23 -299 27 -44 20 -80 40
-80 44 0 8 66 32 115 41 45 8 123 3 175 -12z m-344 -89 c6 -6 43 -28 83 -49
l72 -38 -71 -57 -71 -56 -85 59 -86 60 63 45 c66 48 78 53 95 36z m422 -145
c32 -15 52 -30 50 -37 -3 -7 -36 -26 -74 -42 -83 -35 -205 -46 -268 -24 l-38
14 54 42 c30 22 69 48 88 56 54 23 127 20 188 -9z"/>
<path d="M3210 906 c-14 -8 -40 -33 -59 -56 -28 -35 -34 -52 -39 -106 -3 -36
-10 -65 -16 -65 -6 -1 -15 -2 -21 -4 -5 -1 -18 -3 -27 -3 -35 -4 -17 -22 21
-22 l39 0 0 -57 c0 -32 2 -107 5 -168 3 -60 1 -118 -4 -127 -6 -11 -21 -18
-39 -18 -35 0 -40 -15 -7 -24 32 -8 257 5 251 15 -3 5 -20 9 -39 9 -32 0 -34
2 -39 42 -3 24 -5 50 -5 58 0 8 -3 72 -6 142 l-6 127 35 3 c46 4 43 24 -3 21
-28 -2 -31 0 -21 12 7 8 8 15 3 15 -6 0 -11 35 -11 79 -2 70 1 81 22 104 15
17 31 24 40 21 20 -8 20 -18 1 -34 -40 -33 3 -107 52 -89 27 10 46 45 40 70
-3 12 0 19 8 19 22 0 25 -12 25 -96 0 -44 0 -108 -1 -143 0 -36 -4 -71 -11
-78 -7 -8 -7 -13 0 -13 6 0 10 -48 11 -125 l2 -124 -28 -7 c-87 -19 -66 -27
40 -15 47 6 98 7 114 3 15 -4 35 -7 43 -6 8 1 21 2 28 3 25 2 11 21 -15 21
-59 0 -73 10 -73 49 0 20 5 42 12 49 8 8 8 12 1 12 -6 0 -11 17 -11 38 0 20
-3 83 -6 139 -2 57 -1 105 4 108 4 3 4 23 -1 46 -7 29 -6 45 2 55 7 8 7 14 2
14 -6 0 -9 20 -7 45 l3 45 -83 0 c-45 0 -87 5 -92 10 -18 18 -106 22 -134 6z
m9 -19 c-2 -1 -13 -9 -24 -17 -19 -14 -19 -14 -6 3 7 9 18 17 24 17 6 0 8 -1
6 -3z m146 -27 c8 -13 -24 -65 -33 -54 -4 3 -1 9 6 11 6 3 12 9 12 14 0 6 -4
8 -9 5 -7 -5 -8 11 -2 32 2 6 21 1 26 -8z m135 5 c0 -2 -10 -10 -22 -16 -21
-11 -22 -11 -9 4 13 16 31 23 31 12z m0 -39 c0 -13 -61 -66 -75 -66 -4 0 8 18
25 40 33 41 50 50 50 26z m-45 -6 c-3 -5 -11 -10 -16 -10 -6 0 -7 5 -4 10 3 6
11 10 16 10 6 0 7 -4 4 -10z m42 -62 c-2 -34 -7 -45 -26 -54 -13 -7 -27 -18
-32 -25 -4 -8 -11 -10 -15 -6 -4 3 -2 13 5 20 6 8 9 21 6 29 -4 11 48 78 60
78 2 0 3 -19 2 -42z m-305 -5 c-7 -3 -24 -16 -38 -29 -13 -14 -24 -21 -24 -15
0 14 61 63 69 55 3 -4 0 -9 -7 -11z m4 -45 c0 -12 -8 -24 -16 -26 -13 -5 -13
-3 0 13 14 17 13 18 -4 12 -16 -6 -17 -5 -6 8 18 21 27 19 26 -7z m296 -20
c-15 -15 -16 -31 0 -22 6 4 8 3 4 -4 -6 -10 -62 -42 -74 -42 -2 0 1 7 8 15 7
8 9 15 6 15 -11 0 48 49 59 50 5 0 4 -5 -3 -12z m-4 -85 c-7 -9 -8 -14 -2 -10
8 5 12 -10 12 -49 0 -39 -4 -54 -13 -51 -6 3 -12 -1 -12 -9 0 -9 6 -13 15 -9
12 4 13 3 2 -10 -7 -8 -20 -15 -29 -14 -9 0 -11 3 -4 5 7 3 9 12 6 20 -4 11
-9 12 -19 3 -8 -6 -14 -8 -14 -4 0 4 8 14 18 21 16 13 16 13 0 14 -10 0 -18 4
-18 9 0 13 26 32 40 29 7 -2 15 3 17 10 6 14 -23 17 -32 2 -3 -5 -11 -10 -17
-10 -6 0 -3 9 7 20 17 18 17 20 2 14 -33 -12 -18 27 16 41 35 15 47 5 25 -22z
m-288 23 c0 -2 -17 -14 -37 -25 l-38 -21 30 25 c28 23 45 31 45 21z m10 -81
c0 -31 -4 -45 -13 -45 -8 0 -22 -9 -32 -20 -21 -23 -35 -18 -35 13 0 22 56 97
72 97 4 0 8 -20 8 -45z m-55 15 c-10 -11 -23 -20 -28 -20 -6 0 -2 9 8 20 10
11 23 20 28 20 6 0 2 -9 -8 -20z m55 -85 c0 -2 -10 -9 -22 -15 -22 -11 -22
-10 -4 4 21 17 26 19 26 11z m-52 -53 c-7 -9 0 -6 17 6 31 25 47 14 23 -15 -9
-12 -9 -15 0 -9 24 14 11 -11 -22 -43 l-34 -33 -4 47 c-2 32 1 49 9 52 7 3 10
10 6 16 -3 6 -1 7 6 3 9 -6 9 -12 -1 -24z m337 0 c1 -23 -3 -28 -20 -27 -11 1
-26 -2 -32 -8 -9 -6 -13 -5 -13 4 0 19 11 34 35 47 28 16 30 15 30 -16z m-22
-78 c-18 -14 -33 -30 -33 -36 0 -7 11 -1 25 12 14 13 27 21 31 18 9 -9 -38
-48 -58 -48 -10 0 -18 6 -18 14 0 15 58 66 75 66 6 0 -5 -12 -22 -26z m-268
-23 c-3 -6 -11 -11 -17 -11 -6 0 -6 6 2 15 14 17 26 13 15 -4z m-45 -11 c0 -5
-5 -10 -11 -10 -5 0 -7 5 -4 10 3 6 8 10 11 10 2 0 4 -4 4 -10z m50 -20 c-8
-5 -17 -7 -21 -4 -4 2 -10 0 -14 -6 -8 -13 -45 -13 -45 1 0 5 4 8 9 5 5 -3 24
0 42 8 35 15 55 12 29 -4z"/>
<path d="M3469 753 c-13 -16 -12 -17 4 -4 16 13 21 21 13 21 -2 0 -10 -8 -17
-17z"/>
<path d="M1930 898 c0 -5 18 -8 40 -8 55 0 80 -26 80 -84 0 -25 -4 -48 -10
-51 -5 -3 -10 -11 -10 -16 0 -6 5 -7 11 -3 8 5 9 -23 4 -97 -4 -57 -8 -150 -9
-206 -1 -119 -9 -132 -80 -140 -144 -17 42 -33 259 -23 103 5 106 5 51 12 -33
4 -65 13 -72 20 -12 12 -17 99 -12 240 l1 46 76 -3 c58 -3 78 -8 88 -21 8 -10
11 -24 9 -31 -3 -7 -2 -13 2 -13 4 0 8 -21 9 -48 6 -113 14 -142 48 -177 41
-45 80 -47 123 -7 31 29 50 87 38 118 -12 32 -31 7 -33 -46 -1 -29 -4 -54 -6
-57 -2 -2 -12 9 -22 24 -12 18 -21 58 -26 116 -7 85 -9 90 -41 118 -18 15 -42
29 -53 29 -13 1 -7 6 18 15 123 46 165 160 87 240 -52 54 -88 60 -342 60 -126
0 -228 -3 -228 -7z m235 -18 c-3 -6 -17 -7 -29 -4 -16 4 -25 0 -29 -10 -6 -14
-3 -15 16 -6 16 8 13 3 -11 -19 -41 -39 -49 -39 -47 -1 1 17 -2 30 -7 30 -4 0
-8 4 -8 9 0 5 27 9 60 10 38 0 59 -3 55 -9z m181 -5 c10 -8 15 -15 11 -15 -4
0 1 -9 11 -20 12 -13 18 -33 17 -53 -1 -17 3 -35 8 -39 8 -5 8 -13 0 -30 -6
-13 -15 -35 -21 -50 -16 -40 -54 -60 -128 -66 l-65 -5 3 58 c2 31 7 59 11 62
4 3 4 10 -1 16 -16 19 -9 136 8 147 24 15 124 12 146 -5z m59 -14 c-3 -6 -11
-11 -17 -11 -6 0 -6 6 2 15 14 17 26 13 15 -4z m66 -7 c11 -14 10 -20 -14 -40
-37 -32 -54 -31 -32 2 16 25 16 25 -4 14 -17 -9 -21 -8 -21 4 0 15 26 35 46
36 6 0 18 -7 25 -16z m-301 -4 c0 -11 -90 -80 -105 -79 -5 0 12 20 38 44 48
45 67 54 67 35z m340 -41 c0 -6 -10 -20 -22 -31 l-23 -20 27 16 c36 21 50 0
17 -26 l-24 -19 25 7 c29 7 26 2 -9 -16 -15 -8 -21 -8 -17 -1 12 18 -5 12 -40
-14 -39 -29 -49 -31 -39 -7 4 9 7 27 6 40 -1 25 7 35 54 69 29 21 45 22 45 2z
m-348 -1 c-14 -14 -16 -32 -3 -24 13 8 5 -63 -9 -80 -7 -7 -27 -23 -46 -35
-19 -11 -34 -25 -34 -30 0 -5 11 -2 25 7 24 16 75 26 75 15 0 -10 -114 -90
-120 -84 -3 3 3 10 14 17 36 22 67 48 62 53 -3 3 -17 -4 -32 -16 -35 -28 -41
-27 -36 7 2 20 14 34 38 47 18 10 31 22 28 27 -3 4 -19 -1 -35 -12 -21 -16
-29 -18 -29 -8 0 8 5 19 12 26 9 9 9 12 -1 12 -21 0 -9 16 39 54 43 33 77 49
52 24z m348 -118 c0 -13 -25 -29 -35 -22 -19 13 -13 27 11 28 13 1 24 -2 24
-6z m-50 -35 c0 -7 -93 -46 -98 -40 -3 2 15 14 39 25 45 20 59 24 59 15z
m-290 -25 c0 -5 -5 -10 -11 -10 -5 0 -7 5 -4 10 3 6 8 10 11 10 2 0 4 -4 4
-10z m-70 -60 c-19 -17 -39 -30 -44 -30 -11 0 -6 5 38 38 42 32 47 26 6 -8z
m312 0 c6 0 8 -7 4 -15 -3 -9 0 -15 10 -15 21 0 1 -36 -29 -50 l-22 -11 23 20
c22 19 22 20 4 30 -24 13 -38 55 -15 47 8 -3 19 -6 25 -6z m-256 -15 c-16 -12
-17 -15 -4 -20 9 -4 14 -14 11 -23 -5 -19 -113 -98 -113 -83 0 6 20 24 44 40
24 17 46 37 50 46 4 12 -3 10 -25 -7 -66 -49 -69 -51 -69 -39 0 6 16 21 35 32
19 12 32 25 29 30 -6 10 -19 5 -46 -19 -10 -8 -18 -11 -18 -5 0 16 70 59 99
61 25 1 25 1 7 -13z m314 -77 c0 -4 -4 -8 -8 -8 -5 0 -9 -7 -9 -15 0 -8 6 -15
14 -15 7 0 13 -4 13 -9 0 -4 -13 -7 -29 -5 -32 4 -64 -22 -43 -35 9 -5 8 -12
-3 -27 -14 -18 -14 -17 -15 15 0 37 23 71 49 71 13 1 13 2 -2 11 -10 6 -24 7
-30 2 -7 -4 -6 -1 3 7 18 16 60 22 60 8z m-380 -64 c-17 -15 -33 -24 -36 -21
-6 6 45 47 58 47 5 0 -5 -12 -22 -26z m70 1 c-6 -8 -9 -19 -5 -25 4 -6 3 -9
-2 -8 -10 4 -105 -64 -98 -70 3 -3 13 2 22 10 10 9 32 23 50 32 30 15 32 15
28 -3 -2 -11 5 -27 16 -37 23 -21 24 -34 3 -34 -8 0 -13 4 -10 8 2 4 0 14 -5
22 -7 12 -10 11 -15 -7 -7 -24 -16 -26 -77 -15 l-38 7 23 35 c13 19 34 40 46
46 13 6 30 21 38 33 8 11 20 21 26 21 7 0 6 -5 -2 -15z m295 -94 c-14 -14 -25
-20 -25 -13 0 6 5 12 10 12 6 0 10 7 10 17 0 15 -2 15 -19 -1 -11 -10 -21 -13
-25 -7 -4 5 7 18 24 27 16 10 30 23 31 29 0 5 5 -1 10 -14 8 -21 5 -29 -16
-50z m33 -31 c-14 -22 -24 -25 -33 -11 -3 6 3 14 12 20 28 16 34 13 21 -9z"/>
<path d="M2440 745 c-11 -13 -10 -14 4 -9 9 3 16 10 16 15 0 13 -6 11 -20 -6z"/>
<path d="M2110 325 c-13 -14 -19 -25 -14 -25 10 0 54 37 54 45 0 12 -19 3 -40
-20z"/>
<path d="M4901 889 c-32 -35 -28 -73 11 -92 36 -17 60 -10 78 24 30 54 -47
113 -89 68z m64 -27 c-6 -5 -23 -14 -40 -20 l-30 -13 25 21 c23 18 66 30 45
12z m15 -25 c0 -16 -20 -37 -36 -37 -16 0 -11 29 7 41 20 12 29 11 29 -4z"/>
<path d="M4608 843 c-8 -78 -31 -117 -87 -154 -56 -37 -65 -54 -26 -47 14 3
29 0 32 -6 4 -6 8 -62 8 -126 3 -199 20 -237 109 -247 74 -9 100 20 121 135 4
24 -13 72 -26 72 -14 0 -16 -24 -11 -95 4 -56 1 -73 -11 -84 -22 -18 -54 -5
-71 27 -17 33 -26 161 -19 260 l6 72 36 1 c20 1 47 4 61 9 24 7 23 7 -10 13
-19 4 -46 8 -60 9 -23 3 -25 8 -32 78 -4 41 -5 87 -2 103 3 15 1 27 -4 27 -5
0 -12 -21 -14 -47z m12 -153 c0 -10 -8 -21 -17 -24 -14 -6 -15 -9 -4 -15 9 -6
5 -14 -18 -30 -33 -24 -45 -9 -13 16 9 7 13 13 7 12 -5 -1 -18 1 -28 6 -17 7
-17 8 0 27 20 22 54 38 66 31 4 -2 7 -12 7 -23z m-10 -120 c0 -5 -5 -10 -11
-10 -5 0 -7 5 -4 10 3 6 8 10 11 10 2 0 4 -4 4 -10z m-30 -35 c-7 -8 -18 -15
-24 -15 -6 0 -2 7 8 15 25 19 32 19 16 0z m26 -30 c-3 -13 -7 -29 -11 -35 -3
-5 -1 -10 5 -10 6 0 9 -15 7 -37 -3 -28 -9 -37 -24 -38 -18 -1 -21 4 -19 42 0
24 -3 43 -7 43 -5 0 1 14 13 30 26 36 42 39 36 5z m5 -149 c-7 -8 -21 -14 -32
-13 -37 3 -16 24 25 26 15 1 16 -2 7 -13z"/>
<path d="M4573 674 c0 -9 5 -10 19 -3 10 5 18 12 18 14 0 2 -8 3 -18 2 -10 0
-19 -7 -19 -13z"/>
<path d="M5235 691 c-43 -19 -150 -132 -135 -141 5 -3 4 -17 -3 -30 -9 -18
-10 -41 -3 -83 7 -48 16 -65 50 -100 23 -23 57 -50 78 -60 44 -21 111 -22 128
-3 6 8 17 13 24 10 41 -16 128 102 142 192 13 87 -42 177 -126 207 -75 26
-111 28 -155 8z m140 -46 c8 -17 12 -48 10 -68 -1 -20 1 -37 6 -37 11 0 7 -79
-5 -99 -5 -8 -4 -16 3 -21 20 -12 2 -77 -29 -110 -29 -31 -65 -38 -101 -20
-10 6 -19 17 -19 25 0 8 -4 15 -9 15 -10 0 -9 19 2 37 4 6 1 13 -5 16 -10 3
-10 7 1 20 10 13 10 17 1 17 -10 0 -10 3 -1 14 9 11 9 15 -1 20 -10 5 -10 7 0
12 6 3 12 10 12 15 0 6 -4 7 -10 4 -5 -3 -10 1 -10 9 0 9 6 16 13 16 9 0 9 2
1 8 -10 6 -11 34 -5 99 0 7 13 20 29 28 15 9 19 14 10 11 -10 -3 -18 -1 -18 4
0 13 59 27 89 22 14 -3 28 -17 36 -37z m-163 -12 c-6 -3 -9 -9 -6 -15 4 -6 0
-14 -7 -19 -19 -12 -32 -11 -24 1 3 6 0 10 -7 10 -7 0 1 8 17 19 17 10 32 16
35 13 3 -2 -1 -7 -8 -9z m214 2 c-3 -10 1 -15 12 -15 10 0 28 -14 41 -30 19
-26 20 -31 6 -36 -8 -3 -15 -10 -15 -15 0 -4 6 -6 14 -3 25 9 18 -63 -7 -82
-16 -12 -17 -15 -4 -11 27 10 20 -11 -15 -44 -34 -30 -48 -36 -48 -19 0 6 4
10 10 10 5 0 14 9 20 21 11 19 10 20 -9 9 -27 -14 -29 5 -3 33 16 19 16 20 0
14 -19 -7 -25 8 -8 18 6 3 10 11 10 16 0 6 -4 8 -9 5 -14 -9 -7 49 8 68 12 14
12 16 -3 10 -12 -5 -15 -2 -10 10 3 9 1 16 -5 16 -9 0 -9 5 -1 20 12 23 25 27
16 5z m-236 -67 c-23 -19 -24 -20 -3 -14 20 7 21 5 13 -24 -5 -17 -19 -40 -32
-51 l-23 -21 25 16 c28 18 44 21 35 6 -3 -5 -8 -20 -10 -32 -5 -25 -42 -57
-65 -58 -8 0 3 12 23 26 48 32 42 42 -7 13 -21 -12 -36 -16 -36 -10 0 7 7 14
15 17 8 4 15 10 15 15 0 4 -7 5 -17 2 -10 -4 -14 -2 -10 4 4 6 1 14 -5 17 -13
5 18 39 45 49 6 2 9 8 5 12 -4 4 -14 2 -23 -5 -17 -15 -19 -7 -5 21 6 10 19
19 30 19 10 0 22 5 25 10 3 6 12 10 18 10 7 -1 1 -10 -13 -22z m-15 -195 l-30
-25 28 6 c29 7 38 -8 10 -18 -9 -4 -23 0 -32 9 -15 15 -13 18 14 40 39 32 49
20 10 -12z m275 -22 c-23 -34 -58 -57 -68 -46 -4 4 13 25 36 47 49 45 65 45
32 -1z m-233 -47 c-9 -9 -28 6 -21 18 4 6 10 6 17 -1 6 -6 8 -13 4 -17z"/>
<path d="M2778 690 c-80 -24 -131 -89 -145 -187 -8 -50 -6 -72 10 -138 6 -24
50 -75 81 -94 66 -41 190 -16 235 47 24 35 33 102 14 109 -9 3 -13 -8 -13 -39
0 -52 -21 -85 -66 -104 -67 -28 -115 -10 -139 51 -8 21 -10 29 -16 85 l-4 35
120 5 120 5 -1 61 c-1 75 -24 118 -79 144 -53 25 -84 30 -117 20z m78 -31 c4
-7 9 -8 13 -1 3 6 7 -15 8 -46 1 -32 3 -74 4 -94 2 -21 0 -40 -3 -43 -3 -4
-38 -3 -78 1 l-72 7 7 46 c7 45 26 89 54 124 16 19 56 23 67 6z m-127 -17
c-12 -11 -24 -27 -25 -38 -3 -18 -2 -18 12 0 13 19 14 19 14 -5 0 -43 -11 -66
-36 -78 -26 -11 -24 -31 1 -31 9 0 12 6 9 15 -4 8 -1 15 5 15 15 0 14 -40 -1
-41 -10 0 -10 -2 0 -6 19 -8 14 -35 -14 -67 -34 -39 -48 -23 -47 55 1 56 15
105 36 120 4 3 10 16 12 30 5 23 30 49 48 49 5 0 -1 -8 -14 -18z m188 -29 c-9
-9 -19 -14 -23 -11 -10 10 6 28 24 28 15 0 15 -1 -1 -17z m23 -28 c-11 -13
-10 -14 4 -9 23 9 20 0 -14 -38 -16 -18 -30 -27 -30 -20 0 6 5 12 12 12 6 0 8
3 5 7 -4 3 -2 12 4 20 12 14 0 18 -16 6 -6 -5 -1 2 10 14 22 24 44 31 25 8z
m20 -49 c0 -3 -4 -8 -10 -11 -5 -3 -10 -1 -10 4 0 6 5 11 10 11 6 0 10 -2 10
-4z m0 -46 c0 -5 -8 -10 -17 -10 -15 0 -16 2 -3 10 19 12 20 12 20 0z m-245
-119 c-3 -6 -11 -11 -17 -11 -6 0 -6 6 2 15 14 17 26 13 15 -4z m26 -38 c6
-16 20 -39 32 -52 12 -13 16 -21 10 -17 -7 4 -22 9 -33 11 -28 5 -59 37 -42
43 19 6 4 22 -16 16 -14 -5 -14 -3 2 10 27 22 35 20 47 -11z"/>
<path d="M3785 688 c-78 -27 -128 -97 -144 -198 -13 -80 21 -165 83 -211 51
-37 120 -40 186 -6 54 27 80 61 87 115 5 34 3 42 -11 42 -13 0 -16 -10 -16
-48 0 -37 -5 -53 -22 -70 -50 -46 -122 -55 -155 -20 -24 26 -43 87 -43 136 l0
32 115 0 c99 0 116 2 124 18 10 19 -1 99 -19 133 -11 19 -13 20 -37 4 -25 -17
-40 -15 -28 4 3 6 15 11 26 11 41 0 6 33 -61 57 -41 15 -45 15 -85 1z m84 -32
c7 -8 13 -32 15 -53 1 -22 5 -44 7 -49 4 -8 4 -22 0 -67 -1 -15 -9 -17 -73
-13 l-73 5 4 47 c1 26 9 58 17 71 8 13 21 34 29 48 17 28 55 34 74 11z m-128
-15 c-14 -10 -26 -27 -27 -37 -3 -18 -2 -18 12 0 13 19 14 19 14 -5 0 -43 -11
-66 -36 -78 -26 -11 -24 -31 1 -31 9 0 12 6 9 15 -4 8 -2 15 4 15 6 0 10 -20
10 -45 0 -35 -5 -51 -24 -71 -14 -13 -29 -22 -34 -19 -5 3 -9 37 -9 76 0 65
11 104 32 120 5 3 9 13 11 22 3 20 35 57 50 57 6 0 0 -9 -13 -19z m219 -45 c0
-3 -4 -8 -10 -11 -5 -3 -10 -1 -10 4 0 6 5 11 10 11 6 0 10 -2 10 -4z m10 -22
c0 -1 -12 -15 -28 -31 -15 -15 -24 -24 -20 -19 4 5 3 15 -3 22 -15 18 -4 32
26 32 14 0 25 -2 25 -4z m10 -33 c0 -5 -7 -12 -16 -15 -14 -5 -15 -4 -4 9 14
17 20 19 20 6z m-5 -51 c-3 -5 -14 -10 -23 -10 -15 0 -15 2 -2 10 20 13 33 13
25 0z m-248 -114 c-3 -8 1 -17 9 -20 8 -3 14 -12 14 -20 0 -8 11 -28 25 -44
25 -30 25 -30 3 -25 -33 9 -71 40 -58 48 16 10 2 25 -18 19 -15 -5 -16 -4 -1
8 16 13 19 19 19 38 0 6 3 10 6 10 3 0 4 -6 1 -14z"/>
<path d="M3670 480 c0 -5 5 -10 11 -10 5 0 7 5 4 10 -3 6 -8 10 -11 10 -2 0
-4 -4 -4 -10z"/>
<path d="M5648 692 c-49 -1 -88 -7 -88 -12 0 -5 6 -7 13 -5 6 2 21 -2 31 -10
16 -12 19 -29 20 -100 1 -48 -2 -89 -6 -91 -5 -3 -5 -10 -1 -17 3 -6 8 -38 10
-71 3 -63 -13 -96 -46 -96 -11 0 -12 -3 -4 -8 19 -12 196 -8 200 4 2 6 -5 14
-15 16 -24 7 -29 35 -31 175 -1 122 13 166 62 192 27 14 68 12 68 -4 0 -5 5
-15 10 -21 7 -9 9 -51 8 -194 0 -8 0 -35 1 -60 1 -80 -3 -95 -27 -98 -13 -2
-23 -7 -23 -11 0 -9 228 -6 237 3 4 3 -5 6 -18 6 -14 0 -33 6 -42 13 -18 13
-26 84 -12 107 5 8 4 11 -2 7 -14 -9 -15 54 -1 70 6 8 7 13 1 13 -14 0 -14 61
-1 77 7 9 7 13 -2 13 -7 0 -10 8 -7 20 6 24 -42 77 -79 86 -45 12 -105 -3
-136 -33 -25 -23 -29 -25 -24 -8 10 34 -5 40 -96 37z m49 -37 c-15 -14 -36
-25 -45 -25 -10 0 0 11 23 24 52 31 57 31 22 1z m237 9 c22 -9 20 -27 -5 -42
-12 -7 -18 -16 -15 -19 3 -3 12 0 21 7 9 7 18 10 21 8 3 -3 -9 -16 -27 -29
-26 -18 -31 -19 -26 -6 3 9 3 18 -1 21 -6 3 -8 48 -3 64 2 4 19 2 35 -4z
m-214 -24 c0 -5 -18 -19 -40 -30 -51 -26 -53 -11 -2 18 43 25 42 25 42 12z
m250 -54 c0 -14 -59 -66 -74 -66 -4 0 7 18 24 40 33 42 50 50 50 26z m-260
-11 c0 -13 -62 -56 -69 -49 -6 6 22 30 43 37 6 2 8 8 3 12 -4 5 -13 3 -19 -3
-7 -7 -17 -12 -22 -12 -6 0 -3 7 7 15 21 16 57 16 57 0z m-15 -85 c-9 -10 -26
-20 -38 -23 -21 -6 -21 -5 3 15 l25 21 -25 -7 c-23 -7 -22 -5 10 26 34 32 35
32 38 9 2 -12 -4 -31 -13 -41z m271 23 c-4 -26 -14 -45 -33 -60 -15 -12 -30
-20 -33 -17 -3 3 5 14 18 24 27 23 29 34 2 20 -30 -16 -26 8 7 42 36 37 44 35
39 -9z m-26 -106 c-24 -22 -35 -26 -38 -17 -6 16 48 61 62 53 5 -3 -6 -20 -24
-36z m-235 23 c-4 -6 -3 -16 2 -23 11 -16 10 -41 -2 -46 -6 -2 -20 -7 -32 -12
-31 -12 -29 5 4 36 32 29 25 33 -15 8 l-27 -17 18 21 c10 11 15 23 10 25 -4 3
-3 3 4 2 7 -2 15 1 18 6 4 6 11 10 16 10 6 0 7 -5 4 -10z m251 -39 c-4 -5 0
-12 6 -15 10 -5 10 -7 1 -12 -10 -4 -10 -10 -1 -24 14 -22 12 -25 -22 -35
l-25 -8 25 23 c18 16 14 14 -12 -4 -27 -19 -38 -23 -38 -13 0 8 11 22 25 31
14 9 25 22 25 28 0 6 -9 3 -20 -7 -15 -14 -20 -15 -20 -4 0 8 12 21 28 31 33
20 35 20 28 9z m-240 -66 c-3 -8 2 -19 12 -24 15 -9 14 -10 -6 -11 -15 0 -21
4 -16 12 5 8 2 9 -9 5 -59 -24 -62 -19 -10 14 35 22 36 22 29 4z"/>
<path d="M4220 677 c-47 -22 -112 -82 -132 -122 -28 -55 -26 -163 4 -208 46
-71 145 -113 220 -93 72 19 169 181 108 181 -10 0 -17 -16 -22 -49 -14 -98
-106 -149 -163 -92 -15 15 -22 31 -19 40 4 9 1 16 -6 16 -7 0 -10 6 -7 14 3 8
2 16 -3 18 -13 4 -22 145 -10 153 6 4 8 10 5 15 -11 17 18 91 43 111 33 26 64
24 92 -5 22 -24 22 -56 1 -56 -6 0 -18 -14 -26 -31 -15 -29 -15 -32 1 -50 26
-29 79 -25 100 6 15 24 15 28 -1 70 -31 81 -110 116 -185 82z m170 -76 c0 -5
-7 -12 -16 -15 -24 -9 -28 -7 -14 9 14 17 30 20 30 6z m-217 -13 c-4 -7 -6
-21 -5 -31 4 -19 -34 -56 -56 -57 -7 0 -11 -4 -7 -9 3 -5 2 -12 -3 -15 -14 -9
-11 32 4 44 7 7 12 16 9 20 -3 5 9 20 26 34 33 28 45 33 32 14z m217 -23 c-10
-12 -10 -15 0 -15 10 0 9 -4 -1 -16 -8 -10 -15 -12 -17 -5 -2 7 -9 8 -22 1
-23 -12 -35 13 -14 30 8 7 14 9 14 6 0 -4 8 -2 18 3 25 15 36 13 22 -4z m-224
-67 c-3 -13 -5 -25 -6 -28 -2 -3 -2 -9 -1 -13 1 -5 -3 -6 -8 -3 -5 4 -12 2
-16 -4 -7 -12 -45 -14 -45 -2 0 4 15 13 33 20 24 9 28 15 18 21 -11 7 -10 11
5 20 25 14 24 14 20 -11z m4 -63 c0 -2 -10 -10 -22 -16 -21 -11 -22 -11 -9 4
13 16 31 23 31 12z m-35 -74 c-3 -6 -11 -11 -17 -11 -6 0 -6 6 2 15 14 17 26
13 15 -4z m25 -20 c-6 -12 -15 -21 -20 -21 -16 0 -12 17 5 24 8 3 15 9 14 13
-3 16 3 28 7 16 3 -7 0 -21 -6 -32z m20 -36 c-7 -8 -17 -12 -22 -9 -5 3 -1 12
9 19 22 17 30 11 13 -10z m35 -25 c3 -6 -1 -7 -9 -4 -18 7 -21 14 -7 14 6 0
13 -4 16 -10z"/>
<path d="M4129 553 c-13 -15 -12 -15 9 -4 23 12 28 21 13 21 -5 0 -15 -7 -22
-17z"/>
<path d="M6159 674 c-35 -42 -61 -97 -61 -130 0 -53 20 -93 51 -100 100 -24
168 -46 179 -61 34 -46 -1 -123 -55 -123 -73 1 -132 52 -133 113 -1 22 -26 64
-34 56 -8 -8 -18 -169 -11 -169 4 0 15 10 25 22 l18 22 39 -27 c54 -37 101
-44 147 -22 50 24 67 53 67 112 0 65 -3 76 -31 112 -17 21 -34 31 -52 31 -15
0 -30 5 -33 10 -4 6 -10 8 -15 5 -16 -10 -109 26 -115 45 -7 22 3 49 28 78 37
41 99 22 140 -43 16 -25 33 -45 38 -45 5 0 9 27 9 60 l0 60 -24 -15 c-22 -15
-27 -15 -48 -1 -14 9 -44 19 -69 22 -35 5 -47 2 -60 -12z m55 -163 c3 -5 -10
-17 -30 -26 -32 -15 -38 -15 -51 -2 -13 12 -13 15 2 21 9 3 13 2 10 -4 -3 -5
7 -3 22 5 33 17 40 18 47 6z m30 -43 c-5 -8 -2 -9 9 -5 10 4 24 10 32 13 8 3
15 1 15 -6 0 -8 8 -10 21 -7 15 4 25 -2 40 -26 23 -38 23 -38 4 -63 -13 -16
-14 -16 -9 -1 4 12 1 17 -11 17 -15 0 -15 2 -4 16 11 13 11 15 -2 14 -28 -4
-40 0 -33 12 5 8 0 9 -15 5 -19 -5 -20 -3 -9 10 12 14 11 15 -9 5 -27 -15 -46
-15 -38 -2 3 6 0 10 -7 10 -9 0 -9 3 2 10 20 13 23 12 14 -2z m-104 -152 c0
-2 -7 -6 -15 -10 -8 -3 -15 -1 -15 4 0 6 7 10 15 10 8 0 15 -2 15 -4z"/>
<path d="M4805 670 c-15 -7 -10 -9 22 -9 23 -1 45 -7 50 -13 14 -23 14 -101 1
-110 -10 -6 -10 -8 -1 -8 10 0 12 -24 8 -95 -6 -132 -10 -143 -51 -151 -70
-13 -29 -21 106 -21 77 0 140 3 140 8 0 5 -13 9 -30 9 -17 0 -39 9 -51 21 -20
20 -21 27 -14 148 9 142 9 206 1 220 -7 11 -154 12 -181 1z m138 -25 c-3 -15
-17 -16 -37 -2 -16 12 -15 13 11 12 15 0 27 -4 26 -10z m25 -40 c-3 -30 -2
-52 2 -50 4 2 4 -15 0 -38 -3 -23 -5 -66 -5 -94 0 -40 -3 -53 -14 -53 -8 0
-22 -7 -31 -15 -16 -14 -17 -10 -17 57 0 47 5 81 15 96 13 20 13 22 -4 22 -15
0 -13 5 11 24 l30 24 -30 -6 c-28 -5 -29 -4 -15 14 8 10 23 25 33 32 9 7 17
20 17 28 0 8 3 14 6 14 4 0 4 -25 2 -55z m-28 -264 c0 -5 -7 -12 -16 -15 -14
-5 -15 -4 -4 9 14 17 20 19 20 6z m30 -7 c0 -8 -5 -12 -10 -9 -6 4 -8 11 -5
16 9 14 15 11 15 -7z m10 -35 c0 -5 -10 -9 -22 -9 -13 0 -34 -3 -48 -6 l-25
-5 24 14 c27 16 71 19 71 6z"/>
<path d="M4920 420 c-8 -5 -12 -12 -9 -15 4 -3 12 1 19 10 14 17 11 19 -10 5z"/>
</g>
</svg>
